PathFileType	3	(X/Y/Z)	dance_move_1__view1_aligned.trc
DataRate	CameraRate	NumFrames	NumMarkers	Units	OrigDataRate	OrigDataStartFrame	OrigNumFrames
100.0	100.0	18	19	mm	100.0	816	890
Frame#	Time	pelvis			neck			head			hip_left			hip_right			knee_left			knee_right			ankle_left			ankle_right			heel_left			heel_right			toe_left			toe_right			shoulder_left			shoulder_right			elbow_left			elbow_right			wrist_left			wrist_right			
		X1	Y1	Z1	X2	Y2	Z2	X3	Y3	Z3	X4	Y4	Z4	X5	Y5	Z5	X6	Y6	Z6	X7	Y7	Z7	X8	Y8	Z8	X9	Y9	Z9	X10	Y10	Z10	X11	Y11	Z11	X12	Y12	Z12	X13	Y13	Z13	X14	Y14	Z14	X15	Y15	Z15	X16	Y16	Z16	X17	Y17	Z17	X18	Y18	Z18	X19	Y19	Z19	
816	8.15000	-36.596663	960.307500	219.886035	-5.692952	1536.414026	163.319391	7.011237	1701.191817	72.875555	-112.782479	966.958541	222.703302	39.589347	953.656456	217.068550	-154.402521	537.242078	196.094222	82.207947	531.221961	131.181224	-161.624993	152.316923	315.119154	112.142655	129.515073	164.398391	-154.800776	105.826141	351.373832	111.728194	78.229009	195.439004	-200.035607	101.122264	134.544323	139.617278	93.175819	-27.886048	-196.264946	1469.547884	194.343200	179.439412	1452.655091	177.346247	-287.675131	1190.186719	189.250969	203.526828	1159.912556	142.333609	-248.365187	969.636361	52.498972	181.293917	952.313248	-18.816017
817	8.16000	-40.230889	960.155809	222.136670	-8.725941	1536.600416	167.053014	4.054972	1701.686986	76.930701	-116.376841	966.855350	224.747808	35.915239	953.456264	219.525330	-154.877156	536.533521	201.057259	78.831681	531.239909	134.250416	-161.526329	151.672365	319.140389	109.771819	129.769465	166.417088	-154.898183	105.216191	355.443481	109.531052	78.478628	197.405486	-197.567368	100.152966	138.043089	137.021009	93.558522	-25.925634	-199.376423	1469.953653	197.556695	176.295736	1452.419370	181.356546	-289.624139	1190.416762	192.636704	199.491450	1159.755493	146.356313	-246.630505	970.657232	55.044527	176.864088	952.969682	-15.494356
818	8.17000	-43.865115	960.004117	224.387305	-11.758930	1536.786807	170.786638	1.098706	1702.182155	80.985848	-119.971203	966.752159	226.792314	32.241131	953.256073	221.982110	-155.351790	535.824964	206.020296	75.455415	531.257858	137.319608	-161.427665	151.027807	323.161624	107.400982	130.023857	168.435784	-154.995589	104.606242	359.513129	107.333909	78.728248	199.371968	-195.099130	99.183669	141.541855	134.424740	93.941224	-23.965219	-202.487900	1470.359423	200.770189	173.152060	1452.183648	185.366845	-291.573146	1190.646805	196.022439	195.456072	1159.598430	150.379017	-244.895823	971.678104	57.590082	172.434259	953.626117	-12.172695
819	8.18000	-47.603395	959.523566	227.477871	-15.927688	1536.569116	174.595667	-3.101086	1702.119202	85.073415	-123.734094	966.211353	229.550932	28.527412	952.835777	225.404679	-156.975004	535.110122	210.337284	72.756326	531.193538	140.090976	-162.570035	150.414145	327.331573	104.769990	130.288891	171.824458	-156.333843	104.028272	363.764474	104.776802	79.065087	202.822556	-194.149371	98.351279	145.174700	131.150037	94.082991	-20.583266	-206.596270	1469.994413	203.882622	168.852170	1451.983618	189.916483	-294.597584	1189.831888	199.088860	191.196718	1159.221328	155.885117	-245.888097	970.592527	60.806387	169.609685	952.783249	-5.766441
820	8.19000	-51.341675	959.043015	230.568438	-20.096446	1536.351425	178.404697	-7.300878	1702.056249	89.160982	-127.496985	965.670548	232.309551	24.813694	952.415481	228.827248	-158.598218	534.395279	214.654272	70.057237	531.129219	142.862343	-163.712405	149.800483	331.501523	102.138997	130.553926	175.213131	-157.672097	103.450302	368.015819	102.219694	79.401926	206.273145	-193.199613	97.518888	148.807545	127.875333	94.224758	-17.201314	-210.704639	1469.629404	206.995054	164.552281	1451.783587	194.466120	-297.622022	1189.016971	202.155281	186.937364	1158.844227	161.391217	-246.880370	969.506950	64.022692	166.785111	951.940382	0.639813
821	8.20000	-55.079955	958.562464	233.659005	-24.265203	1536.133733	182.213727	-11.500670	1701.993296	93.248549	-131.259876	965.129742	235.068169	21.099976	951.995185	232.249816	-160.221432	533.680436	218.971261	67.358148	531.064900	145.633711	-164.854775	149.186820	335.671473	99.508005	130.818961	178.601805	-159.010351	102.872332	372.267164	99.662586	79.738765	209.723733	-192.249854	96.686498	152.440389	124.600630	94.366525	-13.819361	-214.813009	1469.264395	210.107487	160.252392	1451.583557	199.015758	-300.646460	1188.202054	205.221702	182.678010	1158.467125	166.897318	-247.872644	968.421373	67.238997	163.960537	951.097514	7.046067
822	8.21000	-58.818234	958.081913	236.749572	-28.433961	1535.916042	186.022756	-15.700462	1701.930343	97.336117	-135.022767	964.588936	237.826787	17.386258	951.574889	235.672385	-161.844646	532.965593	223.288249	64.659059	531.000580	148.405078	-165.997145	148.573158	339.841423	96.877013	131.083995	181.990478	-160.348605	102.294362	376.518508	97.105479	80.075604	213.174321	-191.300096	95.854108	156.073234	121.325927	94.508292	-10.437408	-218.921379	1468.899385	213.219919	155.952502	1451.383527	203.565395	-303.670898	1187.387137	208.288123	178.418656	1158.090023	172.403418	-248.864917	967.335797	70.455303	161.135962	950.254647	13.452322
823	8.22000	-62.556514	957.601362	239.840139	-32.602719	1535.698351	189.831786	-19.900255	1701.867389	101.423684	-138.785658	964.048130	240.585406	13.672540	951.154593	239.094954	-163.467860	532.250751	227.605237	61.959970	530.936261	151.176446	-167.139515	147.959495	344.011372	94.246021	131.349030	185.379152	-161.686859	101.716393	380.769853	94.548371	80.412443	216.624909	-190.350337	95.021718	159.706079	118.051224	94.650059	-7.055455	-223.029748	1468.534376	216.332351	151.652613	1451.183496	208.115033	-306.695336	1186.572220	211.354544	174.159302	1157.712921	177.909518	-249.857191	966.250220	73.671608	158.311388	949.411780	19.858576
824	8.23000	-66.294794	957.120810	242.930706	-36.771477	1535.480660	193.640816	-24.100047	1701.804436	105.511251	-142.548549	963.507324	243.344024	9.958822	950.734298	242.517522	-165.091074	531.535908	231.922225	59.260881	530.871942	153.947813	-168.281885	147.345833	348.181322	91.615029	131.614065	188.767825	-163.025112	101.138423	385.021198	91.991264	80.749282	220.075497	-189.400579	94.189327	163.338924	114.776520	94.791826	-3.673503	-227.138118	1468.169367	219.444784	147.352724	1450.983466	212.664671	-309.719774	1185.757303	214.420965	169.899948	1157.335820	183.415618	-250.849464	965.164643	76.887913	155.486814	948.568912	26.264830
825	8.24000	-70.033074	956.640259	246.021273	-40.940234	1535.262968	197.449845	-28.299839	1701.741483	109.598819	-146.311440	962.966518	246.102642	6.245104	950.314002	245.940091	-166.714288	530.821065	236.239213	56.561792	530.807622	156.719180	-169.424255	146.732171	352.351272	88.984036	131.879099	192.156499	-164.363366	100.560453	389.272542	89.434156	81.086121	223.526086	-188.450820	93.356937	166.971769	111.501817	94.933594	-0.291550	-231.246487	1467.804357	222.557216	143.052834	1450.783436	217.214308	-312.744212	1184.942386	217.487386	165.640594	1156.958718	188.921718	-251.841738	964.079066	80.104218	152.662240	947.726045	32.671085
826	8.25000	-73.771354	956.159708	249.111839	-45.108992	1535.045277	201.258875	-32.499631	1701.678530	113.686386	-150.074331	962.425713	248.861261	2.531385	949.893706	249.362660	-168.337502	530.106222	240.556201	53.862703	530.743303	159.490548	-170.566625	146.118508	356.521222	86.353044	132.144134	195.545172	-165.701620	99.982483	393.523887	86.877048	81.422960	226.976674	-187.501062	92.524547	170.604613	108.227114	95.075361	3.090403	-235.354857	1467.439348	225.669649	138.752945	1450.583405	221.763946	-315.768650	1184.127469	220.553806	161.381240	1156.581616	194.427818	-252.834011	962.993489	83.320524	149.837666	946.883177	39.077339
827	8.26000	-77.509634	955.679157	252.202406	-49.277750	1534.827586	205.067905	-36.699423	1701.615577	117.773953	-153.837222	961.884907	251.619879	-1.182333	949.473410	252.785228	-169.960716	529.391379	244.873190	51.163614	530.678983	162.261915	-171.708995	145.504846	360.691172	83.722052	132.409169	198.933845	-167.039874	99.404513	397.775232	84.319941	81.759799	230.427262	-186.551303	91.692157	174.237458	104.952411	95.217128	6.472356	-239.463227	1467.074338	228.782081	134.453056	1450.383375	226.313583	-318.793088	1183.312552	223.620227	157.121886	1156.204514	199.933918	-253.826285	961.907913	86.536829	147.013092	946.040310	45.483593
828	8.27000	-81.247913	955.198606	255.292973	-53.446508	1534.609894	208.876934	-40.899215	1701.552624	121.861521	-157.600113	961.344101	254.378497	-4.896051	949.053114	256.207797	-171.583930	528.676537	249.190178	48.464525	530.614664	165.033283	-172.851365	144.891183	364.861121	81.091060	132.674203	202.322519	-168.378128	98.826543	402.026576	81.762833	82.096638	233.877850	-185.601545	90.859767	177.870303	101.677707	95.358895	9.854308	-243.571596	1466.709329	231.894514	130.153167	1450.183345	230.863221	-321.817525	1182.497635	226.686648	152.862532	1155.827413	205.440018	-254.818558	960.822336	89.753134	144.188518	945.197442	51.889847
829	8.28000	-82.904171	954.697436	256.997622	-56.327373	1534.100274	210.288023	-43.707153	1701.138110	123.471682	-159.204742	960.742731	255.847573	-6.603870	948.652143	258.147948	-172.064961	528.141362	251.292821	47.525636	530.835743	165.197406	-173.315594	144.313832	366.714435	80.622620	133.214519	203.846097	-169.050768	98.201229	403.868433	81.430124	82.748338	235.553094	-184.803839	90.666304	179.443300	100.629450	95.520645	11.478365	-246.301187	1465.895998	232.798492	127.194954	1449.982752	233.164813	-323.879688	1181.557731	228.124078	150.650758	1155.790087	209.423368	-257.879293	958.908585	93.352266	144.411870	943.737939	58.626464
830	8.29000	-84.560428	954.196266	258.702271	-59.208238	1533.590654	211.699112	-46.515091	1700.723596	125.081844	-160.809372	960.141362	257.316649	-8.311688	948.251172	260.088099	-172.545992	527.606187	253.395463	46.586747	531.056821	165.361529	-173.779822	143.736480	368.567749	80.154181	133.754835	205.369675	-169.723409	97.575916	405.710289	81.097416	83.400037	237.228337	-184.006134	90.472841	181.016298	99.581193	95.682395	13.102422	-249.030777	1465.082668	233.702471	124.236742	1449.782159	235.466405	-325.941851	1180.617827	229.561508	148.438984	1155.752761	213.406719	-260.940027	956.994835	96.951398	144.635223	942.278436	65.363081
831	8.30000	-86.216685	953.695096	260.406920	-62.089103	1533.081033	213.110201	-49.323029	1700.309082	126.692006	-162.414001	959.539992	258.785725	-10.019507	947.850202	262.028251	-173.027023	527.071012	255.498106	45.647859	531.277900	165.525652	-174.244051	143.159129	370.421062	79.685741	134.295150	206.893253	-170.396049	96.950602	407.552146	80.764707	84.051737	238.903581	-183.208429	90.279379	182.589295	98.532936	95.844144	14.726479	-251.760368	1464.269337	234.606450	121.278530	1449.581567	237.767997	-328.004014	1179.677922	230.998938	146.227210	1155.715436	217.390070	-264.000762	955.081085	100.550531	144.858575	940.818933	72.099698
832	8.31000	-87.872942	953.193927	262.111569	-64.969968	1532.571413	214.521290	-52.130967	1699.894568	128.302168	-164.018630	958.938623	260.254801	-11.727325	947.449231	263.968402	-173.508054	526.535837	257.600749	44.708970	531.498978	165.689776	-174.708280	142.581777	372.274376	79.217301	134.835466	208.416831	-171.068689	96.325289	409.394002	80.431998	84.703437	240.578825	-182.410724	90.085916	184.162292	97.484679	96.005894	16.350536	-254.489959	1463.456006	235.510428	118.320318	1449.380974	240.069589	-330.066177	1178.738018	232.436367	144.015436	1155.678110	221.373420	-267.061496	953.167334	104.149663	145.081927	939.359429	78.836315
833	8.32000	-89.529199	952.692757	263.816218	-67.850834	1532.061792	215.932379	-54.938904	1699.480054	129.912330	-165.623260	958.337253	261.723878	-13.435144	947.048260	265.908553	-173.989085	526.000663	259.703392	43.770082	531.720056	165.853899	-175.172508	142.004425	374.127690	78.748862	135.375782	209.940409	-171.741329	95.699975	411.235859	80.099290	85.355136	242.254068	-181.613019	89.892454	185.735290	96.436422	96.167644	17.974593	-257.219549	1462.642675	236.414407	115.362106	1449.180381	242.371181	-332.128340	1177.798114	233.873797	141.803662	1155.640785	225.356771	-270.122231	951.253584	107.748795	145.305280	937.899926	85.572931
